<svg id="drawing" xmlns="http://www.w3.org/2000/svg" version="1.1" xmlns:xlink="http://www.w3.org/1999/xlink" xmlns:svgjs="http://svgjs.com/svgjs" width="887" height="657.75" viewBox="63 -31 887 657.75"><defs id="SvgjsDefs1001"><marker id="SvgjsMarker1042" markerWidth="33.180339887498945" markerHeight="21.561891914301487" refX="-5" refY="3.8990363547948754" viewBox="-5 -6.881909602355869 33.180339887498945 21.561891914301487" orient="auto" markerUnits="userSpaceOnUse"><path id="SvgjsPath1043" d="M12 3.8990363547948754L0 7.798072709589751V0Z " stroke="#323232" stroke-width="10" fill="#323232" transform="matrix(1,0,0,1,0,0)"></path></marker><marker id="SvgjsMarker1049" markerWidth="33.180339887498945" markerHeight="21.561891914301487" refX="-5" refY="3.8990363547948754" viewBox="-5 -6.881909602355869 33.180339887498945 21.561891914301487" orient="auto" markerUnits="userSpaceOnUse"><path id="SvgjsPath1050" d="M12 3.8990363547948754L0 7.798072709589751V0Z " stroke="#323232" stroke-width="10" fill="#323232" transform="matrix(1,0,0,1,0,0)"></path></marker><marker id="SvgjsMarker1071" markerWidth="22.590169943749473" markerHeight="14.679982311945619" refX="-2.5" refY="3.8990363547948754" viewBox="-2.5 -3.4409548011779343 22.590169943749473 14.679982311945619" orient="auto" markerUnits="userSpaceOnUse"><path id="SvgjsPath1072" d="M12 3.8990363547948754L0 7.798072709589751V0Z " stroke="#323232" stroke-width="5" fill="#323232" transform="matrix(1,0,0,1,0,0)"></path></marker><marker id="SvgjsMarker1078" markerWidth="16.23606797749979" markerHeight="10.550836550532098" refX="-1" refY="3.8990363547948754" viewBox="-1 -1.3763819204711738 16.23606797749979 10.550836550532098" orient="auto" markerUnits="userSpaceOnUse"><path id="SvgjsPath1079" d="M12 3.8990363547948754L0 7.798072709589751V0Z " stroke="#323232" stroke-width="2" fill="#323232" transform="matrix(1,0,0,1,0,0)"></path></marker></defs><g id="SvgjsG1007"><path id="SvgjsPath1008" d="M63 -31H950V626.75H63V-31Z " fill-opacity="1" fill="#ffffff"></path><g id="SvgjsG1009"><g id="SvgjsG1010" transform="translate(130 106.75)" opacity="1"><path id="SvgjsPath1011" d="M0 4Q0 0 4 0L796 0Q800 0 800 4L800 496Q800 500 796 500L4 500Q0 500 0 496Z " stroke-dasharray="none" stroke="#dadada" stroke-width="2" fill="#ffffff" opacity="1"></path><path id="SvgjsPath1012" d="M0 30L0 4Q0 0 4 0L796 0Q800 0 800 4L800 30Z " stroke-dasharray="none" stroke="#dadada" stroke-width="2" fill="#dadada" opacity="1"></path><path id="SvgjsPath1013" d="M10 15C10 10 18 10 18 15C18 20 10 20 10 15Z " stroke-dasharray="none" stroke-width="0" stroke="#dadada" fill="#ffffff" opacity="1"></path><path id="SvgjsPath1014" d="M23 15C23 10 31 10 31 15C31 20 23 20 23 15Z " stroke-dasharray="none" stroke-width="0" stroke="#dadada" fill="#ffffff" opacity="1"></path><path id="SvgjsPath1015" d="M36 15C36 10 44 10 44 15C44 20 36 20 36 15Z " stroke-dasharray="none" stroke-width="0" stroke="#dadada" fill="#ffffff" opacity="1"></path><path id="SvgjsPath1016" d="M55 9Q55 5 59 5L791 5Q795 5 795 9L795 21Q795 25 791 25L59 25Q55 25 55 21Z " stroke-dasharray="none" stroke-width="0" stroke="#dadada" fill="#ffffff" opacity="1"></path><path id="SvgjsPath1017" d="M0 0L800 0L800 500L0 500Z " stroke-dasharray="none" stroke-width="0" stroke="#dadada" fill="none" opacity="1"></path><g id="SvgjsG1018" transform="matrix(1 0 0 1 60 6.875)" fill="#ffffff"><text id="SvgjsText1019" font-family="Microsoft Yahei,SimHei,Arial,SimSun" fill="#000000" font-size="13" font-weight="normal" font-style="normal" text-anchor="start" text-decoration="blink" x="0" y="14">Issue Workflow Explorer</text></g></g><g id="SvgjsG1020" transform="translate(140 172)" opacity="1"><path id="SvgjsPath1021" d="M0 0L192 0L192 298L0 298Z " stroke-dasharray="none" stroke="#8a8a8a" stroke-width="2" fill="#ebebeb" opacity="1"></path></g><g id="SvgjsG1022" transform="translate(83 -11)" opacity="1"><path id="SvgjsPath1023" d="M0 0L69 0L69 25L0 25Z " stroke-dasharray="none" stroke-width="0" stroke="#323232" fill="none" opacity="1"></path></g><g id="SvgjsG1024" transform="translate(140 486)" opacity="1"><path id="SvgjsPath1025" d="M0 0L0 108L624 108M0 108L124.80000000000001 67.5L249.60000000000002 75.6L374.4 43.2L499.20000000000005 54L624 10.8 " stroke-dasharray="none" stroke="#888888" stroke-width="2" fill="none" opacity="1"></path><path id="SvgjsPath1026" d="M0 108L124.80000000000001 43.2L249.60000000000002 61.559999999999995L374.4 54L499.20000000000005 64.8L624 56.160000000000004 " stroke-dasharray="none" stroke="#323232" stroke-width="2" fill="none" opacity="1"></path><path id="SvgjsPath1027" d="M0 0L624 0L624 108L0 108Z " stroke-dasharray="none" stroke-width="0" stroke="#888888" fill="none" opacity="1"></path><g id="SvgjsG1028" transform="matrix(1 0 0 1 10 -21.25)" fill="#ffffff"><text id="SvgjsText1029" font-family="Microsoft Yahei,SimHei,Arial,SimSun" fill="#000000" font-size="14" font-weight="normal" font-style="normal" text-anchor="middle" text-decoration="blink" x="302" y="15">Time Trend</text></g></g><g id="SvgjsG1030" transform="translate(425 386.5)" opacity="1"><path id="SvgjsPath1031" d="M0 36.75C0 -12.25 75 -12.25 75 36.75C75 85.75 0 85.75 0 36.75Z " stroke-dasharray="none" stroke="#323232" stroke-width="2" fill="#ffffff" opacity="1"></path><g id="SvgjsG1032" transform="matrix(1 0 0 1 10 28.625)" fill="#ffffff"><text id="SvgjsText1033" font-family="Microsoft Yahei,SimHei,Arial,SimSun" fill="#000000" font-size="13" font-weight="normal" font-style="normal" text-anchor="middle" text-decoration="blink" x="27.5" y="14">NEW</text></g></g><g id="SvgjsG1034" transform="translate(634.6875 391.25)" opacity="1"><path id="SvgjsPath1035" d="M0 32C0 -10.666666666666666 63.625 -10.666666666666666 63.625 32C63.625 74.66666666666667 0 74.66666666666667 0 32Z " stroke-dasharray="none" stroke="#323232" stroke-width="2" fill="#ffffff" opacity="1"></path><g id="SvgjsG1036" transform="matrix(1 0 0 1 10 7.625)" fill="#ffffff"><text id="SvgjsText1037" font-family="Microsoft Yahei,SimHei,Arial,SimSun" fill="#000000" font-size="13" font-weight="normal" font-style="normal" text-anchor="middle" text-decoration="blink" x="21.8125" y="14">UNCO</text><text id="SvgjsText1038" font-family="Microsoft Yahei,SimHei,Arial,SimSun" fill="#000000" font-size="13" font-weight="normal" font-style="normal" text-anchor="middle" text-decoration="blink" x="21.8125" y="30.25">NFIRM</text><text id="SvgjsText1039" font-family="Microsoft Yahei,SimHei,Arial,SimSun" fill="#000000" font-size="13" font-weight="normal" font-style="normal" text-anchor="middle" text-decoration="blink" x="21.8125" y="46.5">ED</text></g></g><g id="SvgjsG1040"><path id="SvgjsPath1041" d="M462.5 386.5L462.5 329.25L462.5 329.25L462.5 300.1803398874989 " stroke-dasharray="none" stroke="#323232" stroke-width="10" fill="none" marker-end="url(#SvgjsMarker1042)"></path><g id="SvgjsG1044" transform="matrix(1 0 0 1 462.5 335.21516994374946)"><path id="SvgjsPath1045" d="M0 0H0V0H0V0Z " fill="#ffffff" transform="translate(0 0)"></path><text id="SvgjsText1046" font-family="Microsoft Yahei,SimSun" fill="#000000" font-size="13" font-weight="normal" font-style="normal" text-anchor="middle" text-decoration="blink" x="0" y="0"></text></g></g><g id="SvgjsG1047"><path id="SvgjsPath1048" d="M666.5 391.25L666.5 352.625L666.5 352.625L666.5 342.1803398874989 " stroke-dasharray="none" stroke="#323232" stroke-width="10" fill="none" marker-end="url(#SvgjsMarker1049)"></path><g id="SvgjsG1051" transform="matrix(1 0 0 1 666.5 358.59016994374946)"><path id="SvgjsPath1052" d="M0 0H0V0H0V0Z " fill="#ffffff" transform="translate(0 0)"></path><text id="SvgjsText1053" font-family="Microsoft Yahei,SimSun" fill="#000000" font-size="13" font-weight="normal" font-style="normal" text-anchor="middle" text-decoration="blink" x="0" y="0"></text></g></g><g id="SvgjsG1054" transform="translate(436 209)" opacity="1"><path id="SvgjsPath1055" d="M0 26.5C0 -8.833333333333334 53 -8.833333333333334 53 26.5C53 61.833333333333336 0 61.833333333333336 0 26.5Z " stroke-dasharray="none" stroke="#323232" stroke-width="2" fill="#ffffff" opacity="1"></path><g id="SvgjsG1056" transform="matrix(1 0 0 1 10 10.25)" fill="#ffffff"><text id="SvgjsText1057" font-family="Microsoft Yahei,SimHei,Arial,SimSun" fill="#000000" font-size="13" font-weight="normal" font-style="normal" text-anchor="middle" text-decoration="blink" x="16.5" y="14">RESO</text><text id="SvgjsText1058" font-family="Microsoft Yahei,SimHei,Arial,SimSun" fill="#000000" font-size="13" font-weight="normal" font-style="normal" text-anchor="middle" text-decoration="blink" x="16.5" y="30.25">LVED</text></g></g><g id="SvgjsG1059" transform="translate(638.375 262)" opacity="1"><path id="SvgjsPath1060" d="M0 26C0 -8.666666666666666 56.25 -8.666666666666666 56.25 26C56.25 60.666666666666664 0 60.666666666666664 0 26Z " stroke-dasharray="none" stroke="#323232" stroke-width="2" fill="#ffffff" opacity="1"></path><g id="SvgjsG1061" transform="matrix(1 0 0 1 10 17.875)" fill="#ffffff"><text id="SvgjsText1062" font-family="Microsoft Yahei,SimHei,Arial,SimSun" fill="#000000" font-size="13" font-weight="normal" font-style="normal" text-anchor="middle" text-decoration="blink" x="18.125" y="14">NEW</text></g></g><g id="SvgjsG1063" transform="translate(512 314)" opacity="1"><path id="SvgjsPath1064" d="M0 26.75C0 -8.916666666666666 56 -8.916666666666666 56 26.75C56 62.416666666666664 0 62.416666666666664 0 26.75Z " stroke-dasharray="none" stroke="#323232" stroke-width="2" fill="#ffffff" opacity="1"></path><g id="SvgjsG1065" transform="matrix(1 0 0 1 10 2.375)" fill="#ffffff"><text id="SvgjsText1066" font-family="Microsoft Yahei,SimHei,Arial,SimSun" fill="#000000" font-size="13" font-weight="normal" font-style="normal" text-anchor="middle" text-decoration="blink" x="18" y="14">ASSI</text><text id="SvgjsText1067" font-family="Microsoft Yahei,SimHei,Arial,SimSun" fill="#000000" font-size="13" font-weight="normal" font-style="normal" text-anchor="middle" text-decoration="blink" x="18" y="30.25">GNE</text><text id="SvgjsText1068" font-family="Microsoft Yahei,SimHei,Arial,SimSun" fill="#000000" font-size="13" font-weight="normal" font-style="normal" text-anchor="middle" text-decoration="blink" x="18" y="46.5">D</text></g></g><g id="SvgjsG1069"><path id="SvgjsPath1070" d="M500 423.25L540 423.25L540 387.59016994374946 " stroke-dasharray="none" stroke="#323232" stroke-width="5" fill="none" marker-end="url(#SvgjsMarker1071)"></path><g id="SvgjsG1073" transform="matrix(1 0 0 1 537.8299150281252 415.125)"><path id="SvgjsPath1074" d="M0 0H0V0H0V0Z " fill="#ffffff" transform="translate(0 0)"></path><text id="SvgjsText1075" font-family="Microsoft Yahei,SimSun" fill="#000000" font-size="13" font-weight="normal" font-style="normal" text-anchor="middle" text-decoration="blink" x="0" y="0"></text></g></g><g id="SvgjsG1076"><path id="SvgjsPath1077" d="M540 314L540 290.5L540 290.5L540 282.2360679774998 " stroke-dasharray="none" stroke="#323232" stroke-width="2" fill="none" marker-end="url(#SvgjsMarker1078)"></path><g id="SvgjsG1080" transform="matrix(1 0 0 1 540 289.99303398874986)"><path id="SvgjsPath1081" d="M0 0H0V0H0V0Z " fill="#ffffff" transform="translate(0 0)"></path><text id="SvgjsText1082" font-family="Microsoft Yahei,SimSun" fill="#000000" font-size="13" font-weight="normal" font-style="normal" text-anchor="middle" text-decoration="blink" x="0" y="0"></text></g></g><g id="SvgjsG1083" transform="translate(518.5 224)" opacity="1"><path id="SvgjsPath1084" d="M0 21.5C0 -7.166666666666667 43 -7.166666666666667 43 21.5C43 50.166666666666664 0 50.166666666666664 0 21.5Z " stroke-dasharray="none" stroke="#323232" stroke-width="2" fill="#ffffff" opacity="1"></path><g id="SvgjsG1085" transform="matrix(1 0 0 1 10 -11)" fill="#ffffff"><text id="SvgjsText1086" font-family="Microsoft Yahei,SimHei,Arial,SimSun" fill="#000000" font-size="13" font-weight="normal" font-style="normal" text-anchor="middle" text-decoration="blink" x="11.5" y="14">RE</text><text id="SvgjsText1087" font-family="Microsoft Yahei,SimHei,Arial,SimSun" fill="#000000" font-size="13" font-weight="normal" font-style="normal" text-anchor="middle" text-decoration="blink" x="11.5" y="30.25">SO</text><text id="SvgjsText1088" font-family="Microsoft Yahei,SimHei,Arial,SimSun" fill="#000000" font-size="13" font-weight="normal" font-style="normal" text-anchor="middle" text-decoration="blink" x="11.5" y="46.5">LV</text><text id="SvgjsText1089" font-family="Microsoft Yahei,SimHei,Arial,SimSun" fill="#000000" font-size="13" font-weight="normal" font-style="normal" text-anchor="middle" text-decoration="blink" x="11.5" y="62.75">ED</text></g></g><g id="SvgjsG1090" transform="translate(148 224)" opacity="1"><path id="SvgjsPath1091" d="M0.5 0.5L159.5 0.5L159.5 24.5L0.5 24.5Z " stroke-dasharray="none" stroke="#8a8a8a" stroke-width="1" fill="#ffffff" opacity="1"></path><path id="SvgjsPath1092" d="M135 1L159 1L159 24L135 24Z " stroke-dasharray="none" stroke-width="0" stroke="#8a8a8a" fill="#c8c8c8" opacity="1"></path><path id="SvgjsPath1093" d="M134.5 1L134.5 25 " stroke-dasharray="none" stroke="#8a8a8a" stroke-width="1" fill="none" opacity="1"></path><path id="SvgjsPath1094" d="M147.5 15L142.5 10L152.5 10Z " stroke-dasharray="none" stroke-width="0" stroke="#8a8a8a" fill="#505050" opacity="1"></path><path id="SvgjsPath1095" d="M0 0L160 0L160 25L0 25Z " stroke-dasharray="none" stroke-width="0" stroke="#8a8a8a" fill="none" opacity="1"></path><g id="SvgjsG1096" transform="matrix(1 0 0 1 10 3.75)" fill="#ffffff"><text id="SvgjsText1097" font-family="Microsoft Yahei,SimHei,Arial,SimSun" fill="#000000" font-size="14" font-weight="normal" font-style="normal" text-anchor="start" text-decoration="blink" x="0" y="15">Product</text></g></g><g id="SvgjsG1098" transform="translate(796 216.5)" opacity="1"><path id="SvgjsPath1099" d="M0 0L0 58L99 58 " stroke-dasharray="none" stroke="#888888" stroke-width="2" fill="none" opacity="1"></path><path id="SvgjsPath1100" d="M9.9 23.200000000000003L19.8 23.200000000000003L19.8 58L9.9 58Z " stroke-dasharray="none" stroke="#888888" stroke-width="2" fill="#ffffff" opacity="1"></path><path id="SvgjsPath1101" d="M19.8 11.600000000000001L29.7 11.600000000000001L29.7 58L19.8 58Z " stroke-dasharray="none" stroke="#888888" stroke-width="2" fill="#d7d7d7" opacity="1"></path><path id="SvgjsPath1102" d="M39.6 18.56L49.5 18.56L49.5 58L39.6 58Z " stroke-dasharray="none" stroke="#888888" stroke-width="2" fill="#ffffff" opacity="1"></path><path id="SvgjsPath1103" d="M49.5 6.96L59.4 6.96L59.4 58L49.5 58Z " stroke-dasharray="none" stroke="#888888" stroke-width="2" fill="#d7d7d7" opacity="1"></path><path id="SvgjsPath1104" d="M69.3 27.84L79.2 27.84L79.2 58L69.3 58Z " stroke-dasharray="none" stroke="#888888" stroke-width="2" fill="#ffffff" opacity="1"></path><path id="SvgjsPath1105" d="M79.2 30.16L89.10000000000001 30.16L89.10000000000001 58L79.2 58Z " stroke-dasharray="none" stroke="#888888" stroke-width="2" fill="#d7d7d7" opacity="1"></path><path id="SvgjsPath1106" d="M0 0L99 0L99 58L0 58Z " stroke-dasharray="none" stroke-width="0" stroke="#888888" fill="none" opacity="1"></path><g id="SvgjsG1107" transform="matrix(1 0 0 1 10 -30)" fill="#ffffff"><text id="SvgjsText1108" font-family="Microsoft Yahei,SimHei,Arial,SimSun" fill="#000000" font-size="14" font-weight="normal" font-style="normal" text-anchor="middle" text-decoration="blink" x="39.5" y="15">Impact1 (re</text><text id="SvgjsText1109" font-family="Microsoft Yahei,SimHei,Arial,SimSun" fill="#000000" font-size="14" font-weight="normal" font-style="normal" text-anchor="middle" text-decoration="blink" x="39.5" y="32.5">solution)</text></g></g><g id="SvgjsG1110" transform="translate(796 311)" opacity="1"><path id="SvgjsPath1111" d="M0 8Q0 0 8 0L28.400000000000006 0L35.400000000000006 -8L42.400000000000006 0L98 0Q106 0 106 8L106 42.25Q106 50.25 98 50.25L8 50.25Q0 50.25 0 42.25Z " stroke-dasharray="none" stroke="#8a8a8a" stroke-width="2" fill="#ffffff" opacity="1"></path><g id="SvgjsG1112" transform="matrix(1 0 0 1 10 8.875)" fill="#ffffff"><text id="SvgjsText1113" font-family="Microsoft Yahei,SimHei,Arial,SimSun" fill="#000000" font-size="13" font-weight="normal" font-style="normal" text-anchor="middle" text-decoration="blink" x="43" y="14">Response Tim</text><text id="SvgjsText1114" font-family="Microsoft Yahei,SimHei,Arial,SimSun" fill="#000000" font-size="13" font-weight="normal" font-style="normal" text-anchor="middle" text-decoration="blink" x="43" y="30.25">e</text></g></g><g id="SvgjsG1115" transform="translate(793.5 386.5)" opacity="1"><path id="SvgjsPath1116" d="M0 8Q0 0 8 0L30.400000000000006 0L37.400000000000006 -8L44.400000000000006 0L103 0Q111 0 111 8L111 38.5Q111 46.5 103 46.5L8 46.5Q0 46.5 0 38.5Z " stroke-dasharray="none" stroke="#8a8a8a" stroke-width="2" fill="#ffffff" opacity="1"></path><g id="SvgjsG1117" transform="matrix(1 0 0 1 10 15.125)" fill="#ffffff"><text id="SvgjsText1118" font-family="Microsoft Yahei,SimHei,Arial,SimSun" fill="#000000" font-size="13" font-weight="normal" font-style="normal" text-anchor="middle" text-decoration="blink" x="45.5" y="14">Other Impact</text></g></g><g id="SvgjsG1119" transform="translate(165.5 184.5)" opacity="1"><path id="SvgjsPath1120" d="M0 0L119 0L119 20L0 20Z " stroke-dasharray="none" stroke-width="0" stroke="#323232" fill="none" opacity="1"></path><g id="SvgjsG1121" transform="matrix(1 0 0 1 0 -6.25)" fill="#ffffff"><text id="SvgjsText1122" font-family="Microsoft Yahei,SimHei,Arial,SimSun" fill="#000000" font-size="26" font-weight="normal" font-style="normal" text-anchor="middle" text-decoration="blink" x="59.5" y="28">Selector</text></g></g><g id="SvgjsG1123" transform="translate(771 493)" opacity="1"><path id="SvgjsPath1124" d="M0.5 0.5L148.5 0.5L148.5 69.5L0.5 69.5Z " stroke-dasharray="none" stroke="#8a8a8a" stroke-width="1" fill="#ffffff" opacity="1"></path><g id="SvgjsG1125" transform="matrix(1 0 0 1 10 1)" fill="#ffffff"><text id="SvgjsText1126" font-family="Microsoft Yahei,SimHei,Arial,SimSun" fill="#000000" font-size="14" font-weight="normal" font-style="normal" text-anchor="start" text-decoration="blink" x="0" y="15">Legend</text></g></g><g id="SvgjsG1127" transform="translate(148 267)" opacity="1"><path id="SvgjsPath1128" d="M0.5 0.5L159.5 0.5L159.5 24.5L0.5 24.5Z " stroke-dasharray="none" stroke="#8a8a8a" stroke-width="1" fill="#ffffff" opacity="1"></path><path id="SvgjsPath1129" d="M135 1L159 1L159 24L135 24Z " stroke-dasharray="none" stroke-width="0" stroke="#8a8a8a" fill="#c8c8c8" opacity="1"></path><path id="SvgjsPath1130" d="M134.5 1L134.5 25 " stroke-dasharray="none" stroke="#8a8a8a" stroke-width="1" fill="none" opacity="1"></path><path id="SvgjsPath1131" d="M147.5 15L142.5 10L152.5 10Z " stroke-dasharray="none" stroke-width="0" stroke="#8a8a8a" fill="#505050" opacity="1"></path><path id="SvgjsPath1132" d="M0 0L160 0L160 25L0 25Z " stroke-dasharray="none" stroke-width="0" stroke="#8a8a8a" fill="none" opacity="1"></path><g id="SvgjsG1133" transform="matrix(1 0 0 1 10 3.75)" fill="#ffffff"><text id="SvgjsText1134" font-family="Microsoft Yahei,SimHei,Arial,SimSun" fill="#000000" font-size="14" font-weight="normal" font-style="normal" text-anchor="start" text-decoration="blink" x="0" y="15">Resolution</text></g></g><g id="SvgjsG1135" transform="translate(148 341.25)" opacity="1"><path id="SvgjsPath1136" d="M0 10L160 10 " stroke-dasharray="none" stroke="#cbcbcb" stroke-width="4" fill="none" opacity="1"></path><path id="SvgjsPath1137" d="M64 10C64 2 76 2 76 10C76 18 64 18 64 10Z " stroke-dasharray="none" stroke="#cbcbcb" stroke-width="2" fill="#ffffff" opacity="1"></path><path id="SvgjsPath1138" d="M0 0L160 0L160 20L0 20Z " stroke-dasharray="none" stroke-width="0" stroke="#323232" fill="none" opacity="1"></path></g><g id="SvgjsG1139" transform="translate(148 311.25)" opacity="1"><path id="SvgjsPath1140" d="M0 0L120 0L120 30L0 30Z " stroke-dasharray="none" stroke-width="0" stroke="#323232" fill="none" opacity="1"></path><g id="SvgjsG1141" transform="matrix(1 0 0 1 0 5)" fill="#ffffff"><text id="SvgjsText1142" font-family="Microsoft Yahei,SimHei,Arial,SimSun" fill="#000000" font-size="16" font-weight="normal" font-style="normal" text-anchor="middle" text-decoration="blink" x="60" y="17">Creation Time</text></g></g><g id="SvgjsG1143" transform="translate(130 361.25)" opacity="1"><path id="SvgjsPath1144" d="M0 0L120 0L120 30L0 30Z " stroke-dasharray="none" stroke-width="0" stroke="#323232" fill="none" opacity="1"></path><g id="SvgjsG1145" transform="matrix(1 0 0 1 0 5)" fill="#ffffff"><text id="SvgjsText1146" font-family="Microsoft Yahei,SimHei,Arial,SimSun" fill="#000000" font-size="16" font-weight="normal" font-style="normal" text-anchor="middle" text-decoration="blink" x="60" y="17">Reporter</text></g></g><g id="SvgjsG1147" transform="translate(155 395)" opacity="1"><path id="SvgjsPath1148" d="M0 10C0 0.4 14 0.4 14 10C14 19.6 0 19.6 0 10Z " stroke-dasharray="none" stroke="#5c5c5c" stroke-width="2" fill="#ffffff" opacity="1"></path><path id="SvgjsPath1149" d="M3 10C3 4.5 11 4.5 11 10C11 15.5 3 15.5 3 10Z " stroke-dasharray="none" stroke-width="0" stroke="#5c5c5c" fill="#5c5c5c" opacity="1"></path><path id="SvgjsPath1150" d="M0 0L120 0L120 20L0 20Z " stroke-dasharray="none" stroke-width="0" stroke="#5c5c5c" fill="none" opacity="1"></path><g id="SvgjsG1151" transform="matrix(1 0 0 1 20 1.25)" fill="#ffffff"><text id="SvgjsText1152" font-family="Microsoft Yahei,SimHei,Arial,SimSun" fill="#000000" font-size="14" font-weight="normal" font-style="normal" text-anchor="start" text-decoration="blink" x="0" y="15">All</text></g></g><g id="SvgjsG1153" transform="translate(201 395)" opacity="1"><path id="SvgjsPath1154" d="M0 10C0 0.4 14 0.4 14 10C14 19.6 0 19.6 0 10Z " stroke-dasharray="none" stroke="#5c5c5c" stroke-width="2" fill="#ffffff" opacity="1"></path><path id="SvgjsPath1155" d="M0 0L120 0L120 20L0 20Z " stroke-dasharray="none" stroke-width="0" stroke="#5c5c5c" fill="none" opacity="1"></path><g id="SvgjsG1156" transform="matrix(1 0 0 1 20 1.25)" fill="#ffffff"><text id="SvgjsText1157" font-family="Microsoft Yahei,SimHei,Arial,SimSun" fill="#000000" font-size="14" font-weight="normal" font-style="normal" text-anchor="start" text-decoration="blink" x="0" y="15">Inner</text></g></g><g id="SvgjsG1158" transform="translate(263 395)" opacity="1"><path id="SvgjsPath1159" d="M0 10C0 0.4 14 0.4 14 10C14 19.6 0 19.6 0 10Z " stroke-dasharray="none" stroke="#5c5c5c" stroke-width="2" fill="#ffffff" opacity="1"></path><path id="SvgjsPath1160" d="M0 0L120 0L120 20L0 20Z " stroke-dasharray="none" stroke-width="0" stroke="#5c5c5c" fill="none" opacity="1"></path><g id="SvgjsG1161" transform="matrix(1 0 0 1 20 1.25)" fill="#ffffff"><text id="SvgjsText1162" font-family="Microsoft Yahei,SimHei,Arial,SimSun" fill="#000000" font-size="14" font-weight="normal" font-style="normal" text-anchor="start" text-decoration="blink" x="0" y="15">Outer</text></g></g></g></g></svg>